PathFileType	4	(X/Y/Z)	D:\TRACE\spotREDO_2-26-24\spot_baseline_2-v60.trc
DataRate	CameraRate	NumFrames	NumMarkers	Units	OrigDataRate	OrigDataStartFrame	OrigNumFrames
100.00	100.00	      39	9	mm	100.00	4376	      7000
Frame#	Time	front left toe			Front right toe			aft left toe			aft right toe			Arm			FL body			FR body			AL Body			AR Body			
		X1	Y1	Z1	X2	Y2	Z2	X3	Y3	Z3	X4	Y4	Z4	X5	Y5	Z5	X6	Y6	Z6	X7	Y7	Z7	X8	Y8	Z8	X9	Y9	Z9	

4376	43.750	-177.02794	18.87020	-66.48685	296.68768	26.14904	-99.36367	-194.40724	22.51124	432.72369	319.77881	28.24123	341.15515	18.73253	808.81927	-265.61884	-66.40002	550.74854	-235.17828	89.21544	554.00818	-248.25412	-5.21478	559.03741	644.31250	144.82820	558.79785	636.31763	
4377	43.760	-177.03024	19.14376	-66.60529	296.27490	26.71866	-98.40885	-194.41924	22.30837	432.04797	319.71738	28.32337	341.18149	17.39839	810.06226	-264.63846	-66.36866	551.49402	-234.91327	89.34397	554.73505	-247.99406	-5.11646	559.13312	644.35211	144.95085	559.06177	636.64880	
4378	43.770	-177.24821	19.25176	-66.43599	295.33478	26.91772	-98.81477	-194.00000	22.76287	431.93845	319.75665	28.53779	341.22150	16.96676	811.16547	-264.33746	-66.45727	551.87494	-234.78099	89.35760	555.25842	-247.58388	-1.59261	561.54260	647.75537	145.42345	559.86847	636.97345	
4379	43.780	-177.27570	19.10222	-66.35821	295.39343	27.16788	-98.36337	-193.78207	22.91962	431.99152	319.84750	28.51664	341.19553	17.12063	811.49097	-264.15875	-66.49439	551.99402	-234.57452	89.26960	555.64252	-247.43130	-0.98768	562.17920	648.04187	145.76544	560.84296	637.08722	
4380	43.790	-177.25185	19.07657	-66.34367	294.86829	27.27680	-98.60606	-193.84749	23.06879	431.92761	319.92322	28.53091	341.12106	17.06007	811.31140	-264.25259	-66.51036	552.13416	-234.30991	89.19197	555.81805	-247.35312	-0.86657	562.68823	648.04773	146.44115	561.40808	637.40320	
4381	43.800	-177.28627	19.13026	-66.33641	294.71280	27.35522	-98.62910	-193.75352	23.06962	431.87744	319.96826	28.44360	341.07904	16.84326	811.03796	-264.54907	-66.41866	552.19342	-234.16312	89.26217	555.82666	-247.29550	-0.12883	563.43311	647.94507	146.62376	561.96503	637.42499	
4382	43.810	-177.31880	19.02396	-66.30058	294.79956	27.18658	-98.56586	-193.73532	22.99813	431.94174	319.94669	28.40342	341.02399	16.74952	810.89008	-264.65958	-66.17863	552.17865	-233.91638	89.36958	555.77820	-247.25258	-0.30238	563.94006	648.14923	147.35637	562.78772	637.39215	
4383	43.820	-177.29843	19.00046	-66.28468	294.81894	27.08574	-98.53422	-193.76819	22.97991	431.77777	319.92746	28.30701	340.98804	16.92153	810.70294	-264.83569	-65.90810	552.09912	-233.79448	89.54163	555.63446	-247.20445	-0.23042	564.56232	648.00592	147.58678	563.23175	637.40857	
4384	43.830	-177.26337	19.05743	-66.33044	294.87518	27.03413	-98.51661	-193.74973	23.00622	431.76678	320.16342	28.41794	340.99316	17.61106	810.47729	-264.91006	-65.47540	551.93524	-233.75006	89.88183	555.42322	-247.22768	0.11963	564.59387	647.43713	147.87206	563.59290	637.32410	
4385	43.840	-177.20772	19.07360	-66.36684	295.00330	26.88181	-98.51012	-193.76231	23.06646	431.76859	320.16553	28.41920	341.00183	17.96968	810.34308	-265.25180	-65.13365	551.76270	-233.85179	89.99200	555.24048	-247.35812	0.39811	565.28381	647.76483	148.48407	563.95837	637.22266	
4386	43.850	-177.16905	19.11225	-66.38586	295.05341	26.79573	-98.52094	-193.72438	23.15031	431.69897	320.22372	28.40355	340.94595	18.54291	810.22675	-265.59616	-64.62355	551.66553	-233.94731	90.52596	555.25970	-247.77130	0.82430	565.51508	647.53748	148.96909	564.20410	637.01532	
4387	43.860	-177.07027	19.12576	-66.45824	295.41058	26.52160	-98.55809	-193.63770	23.00772	431.68036	320.44107	28.38344	340.93692	19.13252	810.11987	-265.91681	-64.82116	552.02631	-235.07849	91.52597	554.94141	-247.67926	1.29743	565.55042	647.25732	149.42578	564.24176	636.75177	
4388	43.870	-177.05034	19.16333	-66.48196	295.40869	26.50681	-98.56406	-193.72438	22.99762	431.69818	320.31357	28.31610	340.91776	20.05836	810.07129	-266.02402	-63.94564	552.04901	-235.31895	92.23972	554.87439	-247.76823	1.83938	565.59766	647.05518	149.58234	564.29211	636.67682	
4389	43.880	-177.01581	19.30209	-66.50199	295.45743	26.59999	-98.52316	-193.70793	23.04220	431.63290	320.40033	28.30353	340.91519	20.53051	810.19336	-266.21716	-63.00918	551.53418	-234.90280	92.87617	554.85339	-248.01315	1.99993	565.91058	646.81207	149.91042	564.42755	636.40179	
4390	43.890	-176.98633	19.37114	-66.56081	295.63901	26.36101	-98.50876	-193.66525	23.11962	431.54132	320.54791	28.32194	340.94403	21.22931	810.10272	-266.62436	-62.30354	551.30164	-235.15013	92.99483	554.89087	-248.27814	2.03774	566.10730	646.55286	150.12729	564.57800	636.21686	
4391	43.900	-176.95689	19.39617	-66.62421	295.61444	26.34851	-98.57268	-193.74290	23.13116	431.51288	320.51050	28.31531	340.92978	21.80478	809.95532	-267.05005	-61.58123	551.23230	-235.57329	94.16232	554.75873	-248.59906	2.24160	566.16492	646.17834	150.32492	564.87024	635.90747	
4392	43.910	-176.84721	19.36180	-66.66207	295.60950	26.35428	-98.55243	-193.73166	23.13306	431.48276	320.65848	28.31720	340.93860	22.43178	809.80267	-267.25000	-61.04793	551.16992	-235.97833	94.82975	554.62018	-248.94643	2.76174	566.22357	645.72699	150.95915	565.03827	636.00360	
4393	43.920	-176.82826	19.41697	-66.65032	295.77301	26.25990	-98.59074	-193.67010	23.12981	431.42050	320.75208	28.34276	340.98239	23.19601	809.56195	-267.89249	-60.43422	551.09576	-236.46326	95.59983	554.56238	-249.23331	3.14086	566.42291	645.28900	151.28207	565.32452	635.27155	
4394	43.930	-176.74869	19.41999	-66.63350	295.82550	26.23755	-98.55414	-193.65688	23.14809	431.43350	320.73001	28.32091	340.96222	23.67592	809.54688	-268.46490	-59.37324	550.95801	-236.87300	95.81503	554.56476	-249.56143	3.39234	566.61163	644.96210	151.60338	565.56201	634.90271	
4395	43.940	-176.72459	19.47626	-66.67308	295.85980	26.23448	-98.51618	-193.66039	23.33855	431.22079	320.75693	28.31076	340.94812	24.11483	809.59753	-268.64209	-58.70017	550.76300	-237.11157	96.98769	554.63422	-250.04813	3.72380	566.79742	644.65131	151.80312	565.84991	634.36780	
4396	43.950	-176.71071	19.57629	-66.76862	295.93463	26.05190	-98.53807	-193.71829	23.52086	431.07260	320.79440	28.25928	340.91818	24.99183	809.44244	-269.34869	-57.91057	550.58661	-237.45953	97.98206	554.56451	-250.35349	4.23869	567.04871	644.09827	152.31172	566.11841	634.16107	
4397	43.960	-176.72655	19.62386	-66.81636	296.12479	26.02391	-98.40678	-193.72691	23.53956	430.97583	320.78815	28.17885	340.92377	25.80126	809.31989	-269.88303	-56.99029	550.50586	-238.03578	98.58125	554.54852	-250.66733	4.89013	567.21429	643.64752	152.67467	566.48730	633.87500	
4398	43.970	-176.70721	19.64854	-66.89643	296.16843	26.00224	-98.46695	-193.67769	23.45958	430.96310	320.82874	28.15278	340.91324	26.14955	809.13367	-270.39645	-56.61272	550.58661	-238.95677	99.43087	554.46594	-251.26372	5.34253	567.29285	643.19043	153.47903	566.80731	633.28131	
4399	43.980	-176.68799	19.79853	-66.91399	296.10974	26.10445	-98.49825	-193.64430	23.52193	430.92212	320.82101	28.14713	340.93979	26.69602	809.16833	-270.97537	-55.51947	550.37866	-239.04793	100.16505	554.42859	-251.63654	5.78663	567.38910	642.81262	153.96109	566.92609	632.81750	
4400	43.990	-176.66423	19.95811	-66.99310	296.12390	25.99567	-98.56991	-193.61319	23.57341	430.82013	320.89807	28.08906	340.97238	27.55169	809.14008	-271.33310	-55.00813	550.44556	-239.62073	100.91464	554.50555	-252.24110	6.41318	567.49353	642.23505	154.38803	567.09967	632.37048	
4401	44.000	-176.63289	20.05541	-67.04296	296.12100	26.01742	-98.49309	-193.61484	23.62462	430.78360	320.92621	28.10831	340.99008	28.27271	809.19049	-271.80893	-54.33744	550.36877	-240.24599	101.43595	554.49231	-252.89278	7.24416	567.69720	641.69275	155.16586	567.23700	631.93878	
4402	44.010	-176.62866	20.00737	-67.09665	296.28964	25.76385	-98.55092	-193.58841	23.65867	430.72409	320.93906	28.02739	340.96262	28.79881	809.20422	-272.47952	-53.62967	550.27234	-240.80908	102.03617	554.45544	-253.35274	8.38934	567.68414	641.05664	156.19771	567.29303	631.38831	
4403	44.020	-176.57103	19.96685	-67.08815	295.85928	25.14049	-98.52027	-193.48624	23.61329	430.69562	320.96649	27.98267	340.93915	29.21734	809.19360	-273.06866	-52.81608	550.05713	-241.18784	102.86871	554.56329	-253.90576	8.77440	567.71411	640.59644	156.72810	567.42957	630.70233	
4404	44.030	-176.55139	19.96913	-67.16222	296.11899	25.09690	-98.42982	-193.37682	23.58069	430.73016	321.00632	27.87197	340.94876	29.62016	809.21179	-273.76743	-52.15253	550.03064	-241.52222	103.67071	554.58258	-254.45732	9.89187	567.78766	639.98145	157.76891	567.43939	630.15302	
4405	44.040	-176.51254	20.06491	-67.11222	296.47110	25.79737	-98.54422	-193.30580	23.70550	430.78076	321.04590	27.85771	341.00583	30.70244	809.17645	-274.28842	-51.32128	550.28461	-242.27728	104.21720	554.63135	-255.13585	10.52498	567.71741	639.53656	158.73842	567.31909	629.43774	
4406	44.050	-176.48381	20.13772	-67.10497	296.28073	25.75546	-98.63583	-193.23615	23.77634	430.76794	321.10590	27.78177	341.04999	31.20114	809.26385	-274.77972	-51.10923	550.59619	-243.27859	104.87158	554.68732	-255.63153	11.90501	567.70056	638.88470	159.87981	567.28510	628.84692	
4407	44.060	-176.43629	20.14990	-67.10915	295.97208	25.01707	-98.61831	-193.07309	23.78255	430.74982	321.20309	27.71816	341.07321	31.86681	809.24371	-275.41144	-50.15105	550.28851	-243.35280	105.78252	554.67279	-256.61444	13.09369	567.65442	638.28003	160.78349	567.19678	628.24420	
4408	44.070	-176.39642	20.10869	-67.14447	296.11667	24.84821	-98.74696	-193.01553	23.82500	430.71545	321.33911	27.56597	341.05176	32.74688	809.19470	-275.97168	-49.39309	550.08398	-243.95316	105.79544	554.50714	-256.90414	13.93040	567.48682	637.59570	161.90103	567.11792	627.50458	
4409	44.080	-176.25827	20.10229	-67.11342	295.92490	24.94687	-98.90735	-192.92168	23.86242	430.68658	321.37698	27.50469	341.05240	33.42250	809.21863	-276.68481	-48.74963	550.19763	-244.89467	107.02601	554.73639	-258.08923	15.21691	567.33203	636.87225	162.81523	566.96667	626.71039	
4410	44.090	-176.16676	20.16966	-67.10361	295.94882	24.84498	-99.04664	-192.82823	23.97744	430.66141	321.41705	27.41687	341.05167	34.31664	809.26166	-277.11020	-47.79682	550.11871	-245.38571	107.65743	554.52869	-258.55325	16.16974	567.13379	636.32886	164.37868	566.61707	626.12537	
4411	44.100	-176.11029	20.25137	-67.09070	295.99429	24.81235	-99.08118	-192.73962	24.05784	430.54892	321.45956	27.33770	341.06494	35.26871	809.19690	-277.99533	-46.87347	550.34845	-246.11789	108.76656	554.67096	-259.47394	17.37578	566.92365	635.42566	165.32152	566.42651	625.37354	
4412	44.110	-176.08578	20.32290	-67.11025	296.02621	24.79072	-99.09772	-192.71436	24.21449	430.54422	321.49796	27.27196	341.06271	36.26194	809.23853	-278.47491	-46.01379	550.32965	-246.88986	109.64918	554.53259	-259.94632	18.30265	566.65765	634.65863	166.47844	566.17847	624.43085	
4413	44.120	-175.94949	20.35566	-67.20406	296.22513	24.54771	-99.24415	-192.57162	24.21014	430.55673	321.57068	27.17217	341.02383	37.15240	809.21722	-279.47739	-44.95796	550.24884	-247.51062	110.63931	554.53021	-260.89008	19.70628	566.47772	633.84753	167.22079	566.04327	623.61053	
4414	44.130	-175.86395	20.45443	-67.24982	296.51950	24.37106	-99.15526	-192.56979	24.22294	430.53369	321.58115	27.10377	340.98236	38.20006	809.21301	-280.14862	-44.08524	550.14996	-248.32043	111.61029	554.41138	-261.55814	20.47964	566.30090	633.04346	168.60663	565.53564	622.84399	
